# xmcd
#
# Track frame offsets:
#	150
#	39845
#	70355
#	92100
#	124937
#	145560
#	166207
#	197305
#	226972
#	253592
#	271917
#	286470
#	311247
#
# Disc length: 4387 seconds
#
# Revision: 0
# Processed by: cddbd v1.5.2PL0 Copyright (c) Steve Scherf et al.
# Submitted via: audiograbber 1.82.02
#
DISCID=b311210d
DTITLE=Various Artist - Swingjournal presents The Blue Note [CD3]
DYEAR=1998
DGENRE=Jazz
TTITLE0=Art Blakey and The Jazz Messengers/Dat Dere
TTITLE1=Duke Jordan/Si-Joya
TTITLE2=Donald Byrd/Amen
TTITLE3=Duke Person/Wahoo
TTITLE4=Horace Parlan/Us Three
TTITLE5=Jimmy Smith/The Preacher
TTITLE6=Lou Donaldson/Cool Blues
TTITLE7=Baby Face Willette/Swingin'at Sugar Ray's
TTITLE8=The Three Sounds/Satin Doll
TTITLE9=Grant Green/Sunday Mornin'
TTITLE10=Ike Quebec/Loie
TTITLE11=Kenny Burrell/Chittlins Con Corine
TTITLE12=Stanley Turrentine/God Bless the Child
EXTD=
EXTT0=
EXTT1=
EXTT2=
EXTT3=
EXTT4=
EXTT5=
EXTT6=
EXTT7=
EXTT8=
EXTT9=
EXTT10=
EXTT11=
EXTT12=
PLAYORDER=
